<svg width="176" height="44" viewBox="0 0 176 44" fill="none" xmlns="http://www.w3.org/2000/svg">
<rect width="176" height="44" rx="6" fill="#0D1117"/>
<mask id="mask0_637_1979" style="mask-type:alpha" maskUnits="userSpaceOnUse" x="12" y="10" width="24" height="24">
<path d="M24 29.875C25.7456 29.8749 27.4418 29.2951 28.8222 28.2265C30.2025 27.158 31.1889 25.6613 31.6265 23.9714M24 29.875C22.2544 29.8749 20.5582 29.2951 19.1779 28.2265C17.7975 27.158 16.8111 25.6613 16.3735 23.9714M24 29.875C26.1744 29.875 27.9375 26.3488 27.9375 22C27.9375 17.6513 26.1744 14.125 24 14.125M24 29.875C21.8256 29.875 20.0625 26.3488 20.0625 22C20.0625 17.6513 21.8256 14.125 24 14.125M24 14.125C25.3967 14.1244 26.7684 14.4954 27.9744 15.2C29.1804 15.9045 30.1772 16.9173 30.8626 18.1343M24 14.125C22.6033 14.1244 21.2316 14.4954 20.0256 15.2C18.8196 15.9045 17.8228 16.9173 17.1374 18.1343M30.8626 18.1343C28.9575 19.7844 26.5205 20.6911 24 20.6875C21.3768 20.6875 18.9775 19.725 17.1374 18.1343M30.8626 18.1343C31.5284 19.3137 31.8772 20.6456 31.875 22C31.875 22.6808 31.7884 23.3414 31.6265 23.9714M31.6265 23.9714C29.293 25.265 26.668 25.9417 24 25.9375C21.2333 25.9375 18.6336 25.2244 16.3735 23.9714M16.3735 23.9714C16.2079 23.3274 16.1244 22.665 16.125 22C16.125 20.5956 16.4925 19.2761 17.1374 18.1343" stroke="black" stroke-width="1.2" stroke-linecap="round" stroke-linejoin="round"/>
<path d="M27 11.5564C31.1503 11.5564 34.5146 14.9206 34.5146 19.0709" stroke="black" stroke-width="1.2" stroke-linecap="round" stroke-linejoin="round"/>
<path d="M27 32.5145C31.1503 32.5145 34.5146 29.1503 34.5146 25" stroke="black" stroke-width="1.2" stroke-linecap="round" stroke-linejoin="round"/>
<path d="M13.5564 19.0709C13.5564 14.9206 16.9206 11.5564 21.0709 11.5564" stroke="black" stroke-width="1.2" stroke-linecap="round" stroke-linejoin="round"/>
<path d="M13.5564 25C13.5564 29.1503 16.9206 32.5145 21.0709 32.5145" stroke="black" stroke-width="1.2" stroke-linecap="round" stroke-linejoin="round"/>
</mask>
<g mask="url(#mask0_637_1979)">
<rect x="12.75" y="10.75" width="22.5" height="22.5" fill="url(#paint0_linear_637_1979)"/>
</g>
<path d="M51.9318 21.3693L49.1193 21.6761C49.0398 21.392 48.9006 21.125 48.7017 20.875C48.5085 20.625 48.2472 20.4233 47.9176 20.2699C47.5881 20.1165 47.1847 20.0398 46.7074 20.0398C46.0653 20.0398 45.5256 20.179 45.0881 20.4574C44.6562 20.7358 44.4432 21.0966 44.4489 21.5398C44.4432 21.9205 44.5824 22.2301 44.8665 22.4688C45.1563 22.7074 45.6335 22.9034 46.2983 23.0568L48.5312 23.5341C49.7699 23.8011 50.6903 24.2244 51.2926 24.804C51.9006 25.3835 52.2074 26.142 52.2131 27.0795C52.2074 27.9034 51.9659 28.6307 51.4886 29.2614C51.017 29.8864 50.3608 30.375 49.5199 30.7273C48.679 31.0795 47.7131 31.2557 46.6222 31.2557C45.0199 31.2557 43.7301 30.9205 42.7528 30.25C41.7756 29.5739 41.1932 28.6335 41.0057 27.429L44.0142 27.1392C44.1506 27.7301 44.4403 28.1761 44.8835 28.4773C45.3267 28.7784 45.9034 28.929 46.6136 28.929C47.3466 28.929 47.9347 28.7784 48.3778 28.4773C48.8267 28.1761 49.0511 27.804 49.0511 27.3608C49.0511 26.9858 48.9063 26.6761 48.6165 26.4318C48.3324 26.1875 47.8892 26 47.2869 25.8693L45.054 25.4006C43.7983 25.1392 42.8693 24.6989 42.267 24.0795C41.6648 23.4545 41.3665 22.6648 41.3722 21.7102C41.3665 20.9034 41.5852 20.2045 42.0284 19.6136C42.4773 19.017 43.0994 18.5568 43.8949 18.233C44.696 17.9034 45.6193 17.7386 46.6648 17.7386C48.1989 17.7386 49.4063 18.0653 50.2869 18.7188C51.1733 19.3722 51.7216 20.2557 51.9318 21.3693ZM60.5526 31.2557C59.2401 31.2557 58.1065 30.983 57.152 30.4375C56.2031 29.8864 55.473 29.108 54.9616 28.1023C54.4503 27.0909 54.1946 25.9006 54.1946 24.5312C54.1946 23.1847 54.4503 22.0028 54.9616 20.9858C55.4787 19.9631 56.2003 19.1676 57.1264 18.5994C58.0526 18.0256 59.1406 17.7386 60.3906 17.7386C61.1974 17.7386 61.9588 17.8693 62.6747 18.1307C63.3963 18.3864 64.0327 18.7841 64.5838 19.3239C65.1406 19.8636 65.5781 20.5511 65.8963 21.3864C66.2145 22.2159 66.3736 23.2045 66.3736 24.3523V25.2983H55.6435V23.2188H63.4162C63.4105 22.6278 63.2827 22.1023 63.0327 21.642C62.7827 21.1761 62.4332 20.8097 61.9844 20.5426C61.5412 20.2756 61.0241 20.142 60.4332 20.142C59.8026 20.142 59.2486 20.2955 58.7713 20.6023C58.294 20.9034 57.9219 21.3011 57.6548 21.7955C57.3935 22.2841 57.2599 22.821 57.2543 23.4062V25.2216C57.2543 25.983 57.3935 26.6364 57.6719 27.1818C57.9503 27.7216 58.3395 28.1364 58.8395 28.4261C59.3395 28.7102 59.9247 28.8523 60.5952 28.8523C61.044 28.8523 61.4503 28.7898 61.8139 28.6648C62.1776 28.5341 62.4929 28.3438 62.7599 28.0938C63.027 27.8438 63.2287 27.5341 63.3651 27.1648L66.2457 27.4886C66.0639 28.25 65.7173 28.9148 65.206 29.483C64.7003 30.0455 64.0526 30.483 63.2628 30.7955C62.473 31.1023 61.5696 31.2557 60.5526 31.2557ZM72.0689 23.3295V31H68.9837V17.9091H71.9325V20.1335H72.0859C72.3871 19.4006 72.8672 18.8182 73.5263 18.3864C74.1911 17.9545 75.0121 17.7386 75.9893 17.7386C76.8928 17.7386 77.6797 17.9318 78.3501 18.3182C79.0263 18.7045 79.549 19.2642 79.9183 19.9972C80.2933 20.7301 80.478 21.6193 80.4723 22.6648V31H77.3871V23.142C77.3871 22.267 77.1598 21.5824 76.7053 21.0881C76.2564 20.5937 75.6342 20.3466 74.8388 20.3466C74.299 20.3466 73.8189 20.4659 73.3984 20.7045C72.9837 20.9375 72.657 21.2756 72.4183 21.7188C72.1854 22.1619 72.0689 22.6989 72.0689 23.3295ZM93.9553 21.3693L91.1428 21.6761C91.0632 21.392 90.924 21.125 90.7251 20.875C90.532 20.625 90.2706 20.4233 89.9411 20.2699C89.6115 20.1165 89.2081 20.0398 88.7308 20.0398C88.0888 20.0398 87.549 20.179 87.1115 20.4574C86.6797 20.7358 86.4666 21.0966 86.4723 21.5398C86.4666 21.9205 86.6058 22.2301 86.8899 22.4688C87.1797 22.7074 87.657 22.9034 88.3217 23.0568L90.5547 23.5341C91.7933 23.8011 92.7138 24.2244 93.3161 24.804C93.924 25.3835 94.2308 26.142 94.2365 27.0795C94.2308 27.9034 93.9893 28.6307 93.5121 29.2614C93.0405 29.8864 92.3842 30.375 91.5433 30.7273C90.7024 31.0795 89.7365 31.2557 88.6456 31.2557C87.0433 31.2557 85.7536 30.9205 84.7763 30.25C83.799 29.5739 83.2166 28.6335 83.0291 27.429L86.0376 27.1392C86.174 27.7301 86.4638 28.1761 86.907 28.4773C87.3501 28.7784 87.9268 28.929 88.6371 28.929C89.37 28.929 89.9581 28.7784 90.4013 28.4773C90.8501 28.1761 91.0746 27.804 91.0746 27.3608C91.0746 26.9858 90.9297 26.6761 90.6399 26.4318C90.3558 26.1875 89.9126 26 89.3104 25.8693L87.0774 25.4006C85.8217 25.1392 84.8928 24.6989 84.2905 24.0795C83.6882 23.4545 83.3899 22.6648 83.3956 21.7102C83.3899 20.9034 83.6087 20.2045 84.0518 19.6136C84.5007 19.017 85.1229 18.5568 85.9183 18.233C86.7195 17.9034 87.6428 17.7386 88.6882 17.7386C90.2223 17.7386 91.4297 18.0653 92.3104 18.7188C93.1967 19.3722 93.745 20.2557 93.9553 21.3693ZM102.491 31.2557C101.212 31.2557 100.104 30.9744 99.1669 30.4119C98.2294 29.8494 97.5021 29.0625 96.9851 28.0511C96.4737 27.0398 96.218 25.858 96.218 24.5057C96.218 23.1534 96.4737 21.9687 96.9851 20.9517C97.5021 19.9347 98.2294 19.1449 99.1669 18.5824C100.104 18.0199 101.212 17.7386 102.491 17.7386C103.769 17.7386 104.877 18.0199 105.815 18.5824C106.752 19.1449 107.477 19.9347 107.988 20.9517C108.505 21.9687 108.763 23.1534 108.763 24.5057C108.763 25.858 108.505 27.0398 107.988 28.0511C107.477 29.0625 106.752 29.8494 105.815 30.4119C104.877 30.9744 103.769 31.2557 102.491 31.2557ZM102.508 28.7841C103.201 28.7841 103.781 28.5937 104.246 28.2131C104.712 27.8267 105.059 27.3097 105.286 26.6619C105.519 26.0142 105.636 25.2926 105.636 24.4972C105.636 23.696 105.519 22.9716 105.286 22.3239C105.059 21.6705 104.712 21.1506 104.246 20.7642C103.781 20.3778 103.201 20.1847 102.508 20.1847C101.798 20.1847 101.207 20.3778 100.735 20.7642C100.269 21.1506 99.9197 21.6705 99.6868 22.3239C99.4595 22.9716 99.3459 23.696 99.3459 24.4972C99.3459 25.2926 99.4595 26.0142 99.6868 26.6619C99.9197 27.3097 100.269 27.8267 100.735 28.2131C101.207 28.5937 101.798 28.7841 102.508 28.7841ZM115.456 31.2983C114.666 31.2983 113.945 31.1449 113.291 30.8381C112.638 30.5256 112.118 30.0767 111.732 29.4915C111.345 28.9006 111.152 28.1847 111.152 27.3438C111.152 26.696 111.274 26.1506 111.518 25.7074C111.763 25.2642 112.109 24.9006 112.558 24.6165C113.007 24.3324 113.538 24.108 114.152 23.9432C114.766 23.7784 115.442 23.6506 116.18 23.5597C116.913 23.4687 117.533 23.3892 118.038 23.321C118.55 23.2528 118.939 23.1449 119.206 22.9972C119.473 22.8494 119.607 22.6108 119.607 22.2812V21.9744C119.607 21.0824 119.339 20.3807 118.805 19.8693C118.277 19.3523 117.516 19.0938 116.521 19.0938C115.578 19.0938 114.808 19.3011 114.212 19.7159C113.621 20.1307 113.206 20.6193 112.967 21.1818L111.527 20.6619C111.822 19.946 112.232 19.375 112.754 18.9489C113.277 18.517 113.862 18.2074 114.51 18.0199C115.158 17.8267 115.814 17.7301 116.479 17.7301C116.979 17.7301 117.499 17.7955 118.038 17.9261C118.584 18.0568 119.089 18.2841 119.555 18.608C120.021 18.9261 120.399 19.3722 120.689 19.946C120.979 20.5142 121.124 21.2358 121.124 22.1108V31H119.607V28.929H119.513C119.331 29.3153 119.061 29.6903 118.703 30.054C118.345 30.4176 117.896 30.7159 117.357 30.9489C116.817 31.1818 116.183 31.2983 115.456 31.2983ZM115.661 29.9091C116.467 29.9091 117.166 29.7301 117.757 29.3722C118.348 29.0142 118.803 28.5398 119.121 27.9489C119.445 27.3523 119.607 26.696 119.607 25.9801V24.0881C119.493 24.196 119.303 24.2926 119.036 24.3778C118.774 24.4631 118.47 24.5398 118.124 24.608C117.783 24.6705 117.442 24.7244 117.101 24.7699C116.76 24.8153 116.453 24.8551 116.18 24.8892C115.442 24.9801 114.811 25.1222 114.288 25.3153C113.766 25.5085 113.365 25.7756 113.087 26.1165C112.808 26.4517 112.669 26.8835 112.669 27.4119C112.669 28.2074 112.953 28.8239 113.521 29.2614C114.089 29.6932 114.803 29.9091 115.661 29.9091ZM130.315 17.9091V19.2301H124.068V17.9091H130.315ZM126.02 14.7727H127.545V27.5824C127.545 28.1278 127.639 28.5568 127.827 28.8693C128.014 29.1761 128.259 29.3949 128.56 29.5256C128.861 29.6506 129.182 29.7131 129.523 29.7131C129.722 29.7131 129.892 29.7017 130.034 29.679C130.176 29.6506 130.301 29.6222 130.409 29.5938L130.733 30.9659C130.585 31.0227 130.403 31.0739 130.188 31.1193C129.972 31.1705 129.705 31.196 129.386 31.196C128.83 31.196 128.293 31.0739 127.776 30.8295C127.264 30.5852 126.844 30.2216 126.514 29.7386C126.185 29.2557 126.02 28.6562 126.02 27.9403V14.7727ZM135.559 13.5455V31H134.042V13.5455H135.559ZM143.229 31.2983C142.44 31.2983 141.718 31.1449 141.065 30.8381C140.411 30.5256 139.891 30.0767 139.505 29.4915C139.119 28.9006 138.925 28.1847 138.925 27.3438C138.925 26.696 139.048 26.1506 139.292 25.7074C139.536 25.2642 139.883 24.9006 140.332 24.6165C140.781 24.3324 141.312 24.108 141.925 23.9432C142.539 23.7784 143.215 23.6506 143.954 23.5597C144.687 23.4687 145.306 23.3892 145.812 23.321C146.323 23.2528 146.712 23.1449 146.979 22.9972C147.246 22.8494 147.38 22.6108 147.38 22.2812V21.9744C147.38 21.0824 147.113 20.3807 146.579 19.8693C146.05 19.3523 145.289 19.0938 144.295 19.0938C143.352 19.0938 142.582 19.3011 141.985 19.7159C141.394 20.1307 140.979 20.6193 140.741 21.1818L139.3 20.6619C139.596 19.946 140.005 19.375 140.528 18.9489C141.05 18.517 141.636 18.2074 142.283 18.0199C142.931 17.8267 143.587 17.7301 144.252 17.7301C144.752 17.7301 145.272 17.7955 145.812 17.9261C146.357 18.0568 146.863 18.2841 147.329 18.608C147.795 18.9261 148.173 19.3722 148.462 19.946C148.752 20.5142 148.897 21.2358 148.897 22.1108V31H147.38V28.929H147.286C147.104 29.3153 146.835 29.6903 146.477 30.054C146.119 30.4176 145.67 30.7159 145.13 30.9489C144.59 31.1818 143.957 31.2983 143.229 31.2983ZM143.434 29.9091C144.241 29.9091 144.94 29.7301 145.531 29.3722C146.121 29.0142 146.576 28.5398 146.894 27.9489C147.218 27.3523 147.38 26.696 147.38 25.9801V24.0881C147.266 24.196 147.076 24.2926 146.809 24.3778C146.548 24.4631 146.244 24.5398 145.897 24.608C145.556 24.6705 145.215 24.7244 144.874 24.7699C144.533 24.8153 144.227 24.8551 143.954 24.8892C143.215 24.9801 142.585 25.1222 142.062 25.3153C141.539 25.5085 141.138 25.7756 140.86 26.1165C140.582 26.4517 140.442 26.8835 140.442 27.4119C140.442 28.2074 140.727 28.8239 141.295 29.2614C141.863 29.6932 142.576 29.9091 143.434 29.9091ZM161.728 20.7812L160.339 21.1733C160.202 20.7812 160.009 20.4261 159.759 20.108C159.509 19.7898 159.183 19.5369 158.779 19.3494C158.381 19.1619 157.887 19.0682 157.296 19.0682C156.41 19.0682 155.683 19.2784 155.114 19.6989C154.546 20.1193 154.262 20.6619 154.262 21.3267C154.262 21.8892 154.455 22.3466 154.842 22.6989C155.234 23.0455 155.836 23.321 156.648 23.5256L158.626 24.0114C159.722 24.2784 160.543 24.7017 161.089 25.2812C161.64 25.8608 161.915 26.5881 161.915 27.4631C161.915 28.2017 161.711 28.858 161.302 29.4318C160.893 30.0057 160.322 30.4574 159.589 30.7869C158.862 31.1108 158.018 31.2727 157.058 31.2727C155.779 31.2727 154.725 30.9858 153.896 30.4119C153.066 29.8324 152.535 28.9972 152.302 27.9062L153.759 27.5483C153.947 28.3267 154.313 28.9148 154.859 29.3125C155.41 29.7102 156.134 29.9091 157.032 29.9091C158.038 29.9091 158.842 29.6847 159.444 29.2358C160.046 28.7812 160.347 28.2131 160.347 27.5312C160.347 27.0028 160.171 26.5597 159.819 26.2017C159.467 25.8381 158.933 25.571 158.217 25.4006L156.077 24.8892C154.941 24.6165 154.1 24.1847 153.555 23.5938C153.009 23.0028 152.737 22.2699 152.737 21.3949C152.737 20.6733 152.933 20.0398 153.325 19.4943C153.717 18.9432 154.256 18.5114 154.944 18.1989C155.631 17.8864 156.415 17.7301 157.296 17.7301C158.495 17.7301 159.452 18.0028 160.168 18.5483C160.89 19.0881 161.41 19.8324 161.728 20.7812Z" fill="#EDF2F7"/>
<defs>
<linearGradient id="paint0_linear_637_1979" x1="12.75" y1="10.75" x2="35.25" y2="33.25" gradientUnits="userSpaceOnUse">
<stop stop-color="#38BDF8"/>
<stop offset="1" stop-color="#2563EB"/>
</linearGradient>
</defs>
</svg>
