<svg width="48" height="48" viewBox="0 0 48 48" fill="none" xmlns="http://www.w3.org/2000/svg">
<g clip-path="url(#clip0_628_2038)">
<path d="M11.0153 38.746L25.1285 47.3796L42.273 38.746H36.3004L43.1656 4.22854H28.7576L29.5019 0.486082H11.6531L4.59261 35.983H19.0359L18.4866 38.746H11.0153V38.746ZM25.1056 47.9349L24.9904 47.8649L9.28891 38.2598H18.0874L18.4433 36.4692H4L11.2545 0H30.0947L29.3502 3.74246H43.7582L36.893 38.2598H44.3192L25.1056 47.9349V47.9349Z" fill="#3C3C4C" stroke="#3C3C4C" stroke-width="0.25" stroke-miterlimit="2" stroke-linejoin="round"/>
<path d="M20.4874 17.5329H29.5217C29.7414 16.0594 29.5232 14.8858 28.8873 14.1298C28.3029 13.4361 27.3665 13.0841 26.104 13.0841C23.0247 13.0841 21.0971 15.2723 20.4874 17.5329ZM29.933 18.0191H19.8758L19.9404 17.724C20.4981 15.1726 22.6206 12.5979 26.104 12.5979C27.5168 12.5979 28.5786 13.0082 29.2592 13.8167C30.0196 14.72 30.2646 16.1031 29.968 17.8174L29.933 18.0191V18.0191ZM26.545 7.66099C17.8617 7.66099 12.4867 15.3714 12.4867 22.5151C12.4629 25.5628 13.4221 28.1531 15.2612 30.0068C17.1538 31.9145 19.887 32.9228 23.1657 32.9228C27.6685 32.9228 31.0298 31.6855 34.0246 28.9169L29.8805 25.0975C28.2003 26.7005 26.1881 27.5464 24.047 27.5464C22.4914 27.5464 21.2108 27.0641 20.344 26.1525C19.451 25.2137 19.0216 23.8672 19.1028 22.2584L19.1145 22.0275H35.7936L36.15 19.9812C36.8244 16.3087 36.1714 13.0583 34.3123 10.8268C32.587 8.75578 29.9009 7.66099 26.545 7.66099M23.1657 33.409C19.7543 33.409 16.902 32.3506 14.9165 30.3496C12.9835 28.401 11.9753 25.6917 12.0005 22.5131C12.0005 15.1376 17.5612 7.17479 26.545 7.17479C30.0501 7.17479 32.865 8.32991 34.6862 10.5152C36.6391 12.8599 37.329 16.2519 36.6284 20.0668L36.2025 22.5137H19.5802C19.556 23.8836 19.9395 25.0223 20.6959 25.818C21.4689 26.6304 22.6275 27.0602 24.047 27.0602C26.6763 27.0602 28.5746 25.717 29.7041 24.5906L29.8693 24.4262L34.7372 28.9124L34.5491 29.0914C31.409 32.0773 27.8979 33.409 23.1657 33.409" fill="#3C3C4C"/>
<path d="M26.545 7.66099C17.8617 7.66099 12.4867 15.3714 12.4867 22.5151C12.4629 25.5628 13.4221 28.1531 15.2612 30.0068C17.1538 31.9145 19.887 32.9228 23.1657 32.9228C27.6685 32.9228 31.0298 31.6855 34.0246 28.9169L29.8805 25.0975C28.2003 26.7005 26.1881 27.5464 24.047 27.5464C22.4914 27.5464 21.2108 27.0641 20.344 26.1525C19.451 25.2137 19.0216 23.8672 19.1028 22.2584L19.1145 22.0275H35.7936L36.15 19.9812C36.8244 16.3087 36.1714 13.0583 34.3123 10.8268C32.587 8.75578 29.9009 7.66099 26.545 7.66099M23.1657 33.409C19.7543 33.409 16.902 32.3506 14.9165 30.3496C12.9835 28.401 11.9753 25.6917 12.0005 22.5131C12.0005 15.1376 17.5612 7.17479 26.545 7.17479C30.0501 7.17479 32.865 8.32991 34.6862 10.5152C36.6391 12.8599 37.329 16.2519 36.6284 20.0668L36.2025 22.5137H19.5802C19.556 23.8836 19.9395 25.0223 20.6959 25.818C21.4689 26.6304 22.6275 27.0602 24.047 27.0602C26.6763 27.0602 28.5746 25.717 29.7041 24.5906L29.8693 24.4262L34.7372 28.9124L34.5491 29.0914C31.409 32.0773 27.8979 33.409 23.1657 33.409M20.4874 17.5329H29.5217C29.7414 16.0594 29.5232 14.8858 28.8873 14.1298C28.3029 13.4361 27.3665 13.0841 26.104 13.0841C23.0247 13.0841 21.0971 15.2723 20.4874 17.5329ZM29.933 18.0191H19.8758L19.9404 17.724C20.4981 15.1726 22.6206 12.5979 26.104 12.5979C27.5168 12.5979 28.5786 13.0082 29.2592 13.8167C30.0196 14.72 30.2646 16.1031 29.968 17.8174L29.933 18.0191V18.0191Z" stroke="#3C3C4C" stroke-width="0.25" stroke-miterlimit="2" stroke-linejoin="round"/>
</g>
<defs>
<clipPath id="clip0_628_2038">
<rect width="48" height="48" fill="white"/>
</clipPath>
</defs>
</svg>
