<svg width="32" height="32" viewBox="0 0 32 32" fill="none" xmlns="http://www.w3.org/2000/svg">
<mask id="mask0_617_2383" style="mask-type:alpha" maskUnits="userSpaceOnUse" x="1" y="1" width="30" height="30">
<path d="M16 26.5C18.3275 26.4999 20.589 25.7267 22.4295 24.302C24.27 22.8773 25.5852 20.8817 26.1687 18.6285M16 26.5C13.6725 26.4999 11.411 25.7267 9.57047 24.302C7.72998 22.8773 6.41476 20.8817 5.83134 18.6285M16 26.5C18.8992 26.5 21.25 21.7983 21.25 16C21.25 10.2017 18.8992 5.5 16 5.5M16 26.5C13.1008 26.5 10.75 21.7983 10.75 16C10.75 10.2017 13.1008 5.5 16 5.5M16 5.5C17.8623 5.49922 19.6912 5.99392 21.2992 6.93333C22.9072 7.87273 24.2363 9.22303 25.1502 10.8457M16 5.5C14.1377 5.49922 12.3088 5.99392 10.7008 6.93333C9.0928 7.87273 7.76369 9.22303 6.84984 10.8457M25.1502 10.8457C22.61 13.0459 19.3606 14.2548 16 14.25C12.5023 14.25 9.30334 12.9667 6.84984 10.8457M25.1502 10.8457C26.0378 12.4183 26.5029 14.1941 26.5 16C26.5 16.9077 26.3845 17.7885 26.1687 18.6285M26.1687 18.6285C23.0574 20.3533 19.5574 21.2556 16 21.25C12.311 21.25 8.84484 20.2992 5.83134 18.6285M5.83134 18.6285C5.61054 17.7698 5.49922 16.8866 5.5 16C5.5 14.1275 5.99 12.3682 6.84984 10.8457" stroke="black" stroke-width="1.5" stroke-linecap="round" stroke-linejoin="round"/>
<path d="M20.0001 2.07514C25.5338 2.07514 30.0194 6.56078 30.0194 12.0945" stroke="black" stroke-width="1.5" stroke-linecap="round" stroke-linejoin="round"/>
<path d="M20.0001 30.0193C25.5338 30.0193 30.0194 25.5337 30.0194 20" stroke="black" stroke-width="1.5" stroke-linecap="round" stroke-linejoin="round"/>
<path d="M2.07514 12.0945C2.07514 6.56078 6.56078 2.07514 12.0945 2.07514" stroke="black" stroke-width="1.5" stroke-linecap="round" stroke-linejoin="round"/>
<path d="M2.07514 20C2.07514 25.5337 6.56078 30.0194 12.0945 30.0194" stroke="black" stroke-width="1.5" stroke-linecap="round" stroke-linejoin="round"/>
</mask>
<g mask="url(#mask0_617_2383)">
<rect x="1" y="1" width="30" height="30" fill="url(#paint0_linear_617_2383)"/>
</g>
<defs>
<linearGradient id="paint0_linear_617_2383" x1="1" y1="1" x2="31" y2="31" gradientUnits="userSpaceOnUse">
<stop stop-color="#38BDF8"/>
<stop offset="1" stop-color="#2563EB"/>
</linearGradient>
</defs>
</svg>
