<svg width="300" height="300" viewBox="0 0 300 300" fill="none" xmlns="http://www.w3.org/2000/svg">
<circle cx="150" cy="150" r="150" fill="#3F3F46"/>
<path d="M43.3332 150H64.6666C64.6412 138.786 66.8302 127.678 71.1079 117.312C75.3857 106.946 81.668 97.5269 89.5946 89.5947C97.3577 81.8057 106.569 75.6095 116.709 71.3547C137.61 62.6713 161.08 62.5143 182.096 70.9173C182.301 77.8237 185.192 84.3776 190.154 89.186C195.116 93.9943 201.757 96.6781 208.667 96.6667C223.451 96.6667 235.333 84.784 235.333 70C235.333 55.216 223.451 43.3333 208.667 43.3333C201.317 43.3333 194.672 46.2773 189.861 51.0667C163.931 40.688 134.149 40.848 108.421 51.696C95.74 57.0261 84.2187 64.7758 74.5012 74.512C64.7607 84.224 57.0071 95.742 51.6746 108.421C46.1407 121.583 43.3043 135.722 43.3332 150V150ZM228.645 183.301C224.368 193.456 218.224 202.587 210.405 210.405C202.587 218.224 193.456 224.368 183.291 228.645C162.389 237.329 138.919 237.486 117.904 229.083C117.698 222.176 114.808 215.622 109.846 210.814C104.884 206.006 98.2426 203.322 91.3332 203.333C76.5492 203.333 64.6666 215.216 64.6666 230C64.6666 244.784 76.5492 256.667 91.3332 256.667C98.6826 256.667 105.328 253.723 110.139 248.933C122.805 254.049 136.339 256.674 150 256.667C170.976 256.707 191.497 250.551 208.988 238.972C226.479 227.392 240.16 210.905 248.315 191.579C253.856 178.419 256.696 164.279 256.667 150H235.333C235.36 161.437 233.086 172.762 228.645 183.301Z" fill="#F4F4F5"/>
<path d="M150 101.595C123.312 101.595 101.595 123.312 101.595 150C101.595 176.688 123.312 198.405 150 198.405C176.688 198.405 198.405 176.688 198.405 150C198.405 123.312 176.688 101.595 150 101.595ZM150 177.072C135.077 177.072 122.928 164.923 122.928 150C122.928 135.077 135.077 122.928 150 122.928C164.923 122.928 177.072 135.077 177.072 150C177.072 164.923 164.923 177.072 150 177.072Z" fill="#F4F4F5"/>
</svg>
